<?xml version="1.0" encoding="utf-8"?>
<!-- Generator: Adobe Illustrator 25.2.0, SVG Export Plug-In . SVG Version: 6.00 Build 0)  -->
<svg version="1.1" id="レイヤー_1" focusable="false"
	 xmlns="http://www.w3.org/2000/svg" xmlns:xlink="http://www.w3.org/1999/xlink" x="0px" y="0px" viewBox="0 0 199.9 200"
	 style="enable-background:new 0 0 199.9 200;" xml:space="preserve">
<style type="text/css">
	.st0{fill:#FFFFFF;}
</style>
<path class="st0" d="M100,48.7c-28.4,0-51.2,22.9-51.2,51.2s22.9,51.2,51.2,51.2s51.2-22.9,51.2-51.2S128.4,48.7,100,48.7z
	 M100,133.3c-18.3,0-33.3-14.9-33.3-33.3S81.6,66.6,100,66.6s33.3,14.9,33.3,33.3S118.3,133.3,100,133.3L100,133.3z M165.3,46.6
	c0,6.6-5.4,12-12,12c-6.6,0-12-5.4-12-12s5.4-12,12-12S165.3,40,165.3,46.6z M199.2,58.7c-0.8-16-4.4-30.2-16.1-41.9
	C171.4,5.2,157.2,1.5,141.2,0.7c-16.5-0.9-66-0.9-82.5,0c-16,0.8-30.2,4.4-41.9,16.1S1.5,42.7,0.7,58.7c-0.9,16.5-0.9,66,0,82.5
	c0.8,16,4.4,30.2,16.1,41.9c11.7,11.7,25.9,15.3,41.9,16.1c16.5,0.9,66,0.9,82.5,0c16-0.8,30.2-4.4,41.9-16.1
	c11.7-11.7,15.3-25.9,16.1-41.9C200.2,124.7,200.2,75.2,199.2,58.7L199.2,58.7z M177.9,158.9c-3.5,8.7-10.2,15.5-19,19
	c-13.2,5.2-44.4,4-58.9,4s-45.8,1.2-58.9-4c-8.7-3.5-15.5-10.2-19-19c-5.2-13.2-4-44.4-4-58.9s-1.2-45.8,4-58.9
	c3.5-8.7,10.2-15.5,19-19c13.2-5.2,44.4-4,58.9-4s45.8-1.2,58.9,4c8.7,3.5,15.5,10.2,19,19c5.2,13.2,4,44.4,4,58.9
	S183.1,145.8,177.9,158.9z"/>
</svg>
