<?xml version="1.0" encoding="utf-8"?>
<!-- Generator: Adobe Illustrator 25.1.0, SVG Export Plug-In . SVG Version: 6.00 Build 0)  -->
<svg version="1.1" id="レイヤー_1" xmlns="http://www.w3.org/2000/svg" xmlns:xlink="http://www.w3.org/1999/xlink" x="0px"
	 y="0px" viewBox="0 0 865.9 162.1" style="enable-background:new 0 0 865.9 162.1;" xml:space="preserve">
<style type="text/css">
	.st0{display:none;}
	.st1{display:inline;fill:#FF0000;}
	.st2{fill:#444444;stroke:#000000;stroke-width:2;stroke-miterlimit:10;}
	.st3{stroke:#000000;stroke-width:2;stroke-miterlimit:10;}
	.st4{fill:#FFFFFF;stroke:#000000;stroke-width:2;stroke-miterlimit:10;}
	.st5{fill:none;stroke:#231815;stroke-width:10;stroke-miterlimit:10;}
	.st6{fill:#FFFFFF;}
	.st7{fill:#444444;}
</style>
<g id="レイヤー_5" class="st0">
	<rect x="-82.3" y="-132.8" class="st1" width="1080.5" height="479.2"/>
</g>
<g>
	<g>
		<path class="st2" d="M54.9,85.9L54.9,85.9c3.6,12,9.3,20.6,15.8,23.6c0,0,0.1,0,0.1,0c1.7,0.8,3.4,1.1,5.1,1.1
			c1.8,0,3.6-0.4,5.2-1.2c0,0,0,0,0.1,0C88.8,106,95,95.3,98.4,81c0,0,0-0.1,0-0.1c1.8-7.5,2.8-16,2.8-25C101.3,25.5,90,1,76.1,1
			C67.3,1,59.5,10.9,55,26"/>
		<path class="st2" d="M55,26C50.5,10.9,42.7,1,33.9,1C19.9,1,8.7,25.5,8.6,55.8c0,10.2,1.3,19.7,3.5,27.9c0,0,0,0,0,0.1
			c3.6,13,9.5,22.6,16.5,25.8c0,0,0,0,0.1,0c1.7,0.8,3.3,1.1,5.2,1.1c1.8,0,3.6-0.4,5.2-1.2c0,0,0.1,0,0.1,0c3.3-1.5,6.4-4.5,9-8.5
			c2.7-4.1,5-9.2,6.8-15.2"/>
		<path class="st2" d="M12.2,83.7C5.2,91,1,100,1,109.7c0,15.6,10.6,29.2,26.6,36.9c6.8,3.2,14.6,5.4,22.8,6.1
			c2.1,0.2,4.3,0.3,6.5,0.3s4.4-0.1,6.5-0.3c8.3-0.7,16-2.8,22.8-6.1l0,0c15.9-7.7,26.6-21.3,26.6-36.9c0-11.1-5.3-21.1-14.1-28.7"
			/>
		<ellipse class="st3" cx="33.9" cy="115.6" rx="6.1" ry="11.7"/>
		<ellipse class="st3" cx="76.1" cy="115.6" rx="6.1" ry="11.7"/>
		<g>
			<rect x="50.3" y="149.5" class="st4" width="12.9" height="8.8"/>
			<polygon class="st4" points="63.3,150.5 91.8,145.7 91.8,160.4 63.3,157.1 			"/>
			<polygon class="st4" points="50.3,150.5 21.9,145.7 21.9,160.4 50.3,157.1 			"/>
		</g>
	</g>
	<g>
		<path class="st4" d="M807,86.5L807,86.5c3.6,12,9.3,20.6,15.8,23.6c0,0,0.1,0,0.1,0c1.7,0.8,3.4,1.1,5.1,1.1
			c1.8,0,3.6-0.4,5.2-1.2c0,0,0,0,0.1,0c7.4-3.5,13.7-14.2,17.1-28.5c0,0,0-0.1,0-0.1c1.8-7.5,2.8-16,2.8-25
			c0-30.3-11.3-54.8-25.1-54.8c-8.8,0-16.6,9.9-21.2,25"/>
		<path class="st4" d="M807.1,26.6c-4.5-15.1-12.2-25-21.1-25c-14,0-25.2,24.5-25.3,54.8c0,10.2,1.3,19.7,3.5,27.9c0,0,0,0,0,0.1
			c3.6,13,9.5,22.6,16.5,25.8c0,0,0,0,0.1,0c1.7,0.8,3.3,1.1,5.2,1.1c1.8,0,3.6-0.4,5.2-1.2c0,0,0.1,0,0.1,0c3.3-1.5,6.4-4.5,9-8.5
			c2.7-4.1,5-9.2,6.8-15.2"/>
		<path class="st4" d="M764.3,84.3c-7,7.3-11.2,16.3-11.2,26c0,15.6,10.6,29.2,26.6,36.9c6.8,3.2,14.6,5.4,22.8,6.1
			c2.1,0.2,4.3,0.3,6.5,0.3s4.4-0.1,6.5-0.3c8.3-0.7,16-2.8,22.8-6.1l0,0c15.9-7.7,26.6-21.3,26.6-36.9c0-11.1-5.3-21.1-14.1-28.7"
			/>
		<ellipse class="st3" cx="786" cy="116.2" rx="6.1" ry="11.7"/>
		<ellipse class="st3" cx="828.2" cy="116.2" rx="6.1" ry="11.7"/>
		<g>
			<rect x="802.4" y="150.1" class="st2" width="12.9" height="8.8"/>
			<polygon class="st2" points="815.4,151.1 843.8,146.3 843.8,161 815.4,157.7 			"/>
			<polygon class="st2" points="802.4,151.1 774,146.3 774,161 802.4,157.7 			"/>
		</g>
	</g>
	<g>
		<g>
			<path class="st5" d="M148.2,113.5c0,21.8,3,26.4,17.2,27.3v4.5h-41.5v-4.5c14.1-0.7,17.5-6.1,17.5-28.6V46.5
				c0-16.2-2.8-19.7-16-20.7v-4.3h34.5l67.4,95.2V54.6c0-12.4-0.8-18.5-3.1-22.3c-2.5-4.3-6-5.8-14.4-6.3v-4.5h41.8V26
				c-7.9,0.3-11.4,2-14.1,6.3c-2.5,4-3.5,10.6-3.5,21.2v92.4h-12.2L148.2,40.4V113.5z"/>
			<path class="st5" d="M348,144.7c-9.8,1.2-18.5,2-22.8,2c-5.3,0-6.9-2.5-7.8-12.6c-8.6,9.3-17.5,13.4-28.3,13.4
				c-15.7,0-25.5-9.4-25.5-24.3c0-14.2,8.8-23,26.4-26.4c8.1-1.5,16.9-2.6,27.1-3.1V82.9c0-17.5-3-22.6-12.9-22.6
				c-5.3,0-8.8,1.7-11.1,5.6c-1.7,2.8-2.1,5.5-2.6,11.7c-0.3,6-3.1,8.1-10.1,8.1c-7.6,0-11.6-2.6-11.6-7.6c0-5.8,3.8-11.4,10.2-15.4
				c6.9-4.3,15.9-6.3,27.1-6.3c11.4,0,19.5,2.1,24.5,6.8c4.5,4.3,6.4,10.2,6.4,20.5l-0.2,14.4l-0.2,14.4c-0.2,4.6-0.2,7.8-0.2,8.9
				c0,18.2,0.7,19.2,11.2,19.3V144.7z M317.2,97.4c-24,1.8-32.4,7.9-32.4,23.3c0,11.7,5.3,19.5,13.4,19.5c6.6,0,12.9-4.1,16-10.9
				c2.1-4.3,3-9.8,3-19.2V97.4z"/>
			<path class="st5" d="M393.3,73.1c7.1-11.6,16.2-16.7,29.4-16.7c10.7,0,18.2,3.6,22.5,11.2c3,5,4.1,10.4,4.1,20.3v36.7
				c0,14.7,1.2,16.4,12.6,16.5v4h-45v-4c11.1-0.2,12.4-2,12.4-16.5V89c0-17.9-4.3-25.3-14.5-25.3c-6.9,0-12.9,3.8-17,10.9
				c-2.6,4.8-4.5,11.6-4.5,17v33.1c0,14.9,1.2,16.4,12.4,16.5v4h-45.1v-4c11.4-0.2,12.6-1.8,12.6-16.5V78.9c0-14.1-1.3-15.9-12.2-16
				v-4l32.2-2.1L393.3,73.1z"/>
			<path class="st5" d="M559.2,144.7c-9.8,1.2-18.5,2-22.8,2c-5.3,0-6.9-2.5-7.8-12.6c-8.6,9.3-17.5,13.4-28.3,13.4
				c-15.7,0-25.5-9.4-25.5-24.3c0-14.2,8.8-23,26.4-26.4c8.1-1.5,16.9-2.6,27.1-3.1V82.9c0-17.5-3-22.6-12.9-22.6
				c-5.3,0-8.8,1.7-11.1,5.6c-1.7,2.8-2.1,5.5-2.6,11.7c-0.3,6-3.1,8.1-10.1,8.1c-7.6,0-11.6-2.6-11.6-7.6c0-5.8,3.8-11.4,10.2-15.4
				c6.9-4.3,15.9-6.3,27.1-6.3c11.4,0,19.5,2.1,24.5,6.8c4.5,4.3,6.4,10.2,6.4,20.5l-0.2,14.4l-0.2,14.4c-0.2,4.6-0.2,7.8-0.2,8.9
				c0,18.2,0.7,19.2,11.2,19.3V144.7z M528.5,97.4c-24,1.8-32.4,7.9-32.4,23.3c0,11.7,5.3,19.5,13.4,19.5c6.6,0,12.9-4.1,16-10.9
				c2.1-4.3,3-9.8,3-19.2V97.4z"/>
			<path class="st5" d="M576.9,116.1h6c1,8.6,2.3,13.1,5,17.4c4.6,7.1,10.4,10.4,18.5,10.4c10.1,0,16.2-5.3,16.2-14.4
				c0-8.1-4.3-11.7-23.5-20.7c-9.8-4.3-13.9-6.9-17.9-11.2c-4-4.1-5.8-8.9-5.8-14.9c0-16,11.9-26.3,30.6-26.3
				c2.6,0,6.9,0.5,11.7,1.3c4.6,0.8,5.5,1,7.3,1c2.3,0,4.1-0.3,7.9-1.7L631.5,86h-6.1c-1.2-16.9-8.1-25.8-20-25.8
				c-8.9,0-14.7,5.5-14.7,13.7c0,4.3,1.5,7.3,5.1,10.1c3.6,2.8,3.6,2.8,18.5,9.6c16.9,7.8,22.3,14.2,22.3,26.6
				c0,17.2-11.1,27.6-29.8,27.6c-4.8,0-7.1-0.3-16.9-2c-2-0.3-4-0.5-6-0.5c-2.5,0-3,0-8.4,1L576.9,116.1z"/>
			<path class="st5" d="M677.4,98.6c0.2,12.2,1.3,19.3,4.3,26.3c4.8,10.9,12.4,16.4,22.5,16.4c11.4,0,21.2-6.8,27.3-18.8l4.1,2.6
				c-8.3,15.7-19.3,22.6-36.4,22.6c-26.3,0-43.1-17.7-43.1-45.3c0-27.8,16.4-46,41.5-46c16.9,0,28.8,7.6,34.2,21.8
				c1.8,5,2.6,9.9,3,20.3H677.4z M714.1,93.8c-0.3-10.4-1-15.5-2.8-20.7c-3.1-8.8-7.8-12.9-14.2-12.9c-7.1,0-12.6,5-16,14.5
				c-1.8,5.1-2.8,10.4-3.5,19H714.1z"/>
		</g>
		<g>
			<path class="st6" d="M148.2,113.5c0,21.8,3,26.4,17.2,27.3v4.5h-41.5v-4.5c14.1-0.7,17.5-6.1,17.5-28.6V46.5
				c0-16.2-2.8-19.7-16-20.7v-4.3h34.5l67.4,95.2V54.6c0-12.4-0.8-18.5-3.1-22.3c-2.5-4.3-6-5.8-14.4-6.3v-4.5h41.8V26
				c-7.9,0.3-11.4,2-14.1,6.3c-2.5,4-3.5,10.6-3.5,21.2v92.4h-12.2L148.2,40.4V113.5z"/>
			<path class="st6" d="M348,144.7c-9.8,1.2-18.5,2-22.8,2c-5.3,0-6.9-2.5-7.8-12.6c-8.6,9.3-17.5,13.4-28.3,13.4
				c-15.7,0-25.5-9.4-25.5-24.3c0-14.2,8.8-23,26.4-26.4c8.1-1.5,16.9-2.6,27.1-3.1V82.9c0-17.5-3-22.6-12.9-22.6
				c-5.3,0-8.8,1.7-11.1,5.6c-1.7,2.8-2.1,5.5-2.6,11.7c-0.3,6-3.1,8.1-10.1,8.1c-7.6,0-11.6-2.6-11.6-7.6c0-5.8,3.8-11.4,10.2-15.4
				c6.9-4.3,15.9-6.3,27.1-6.3c11.4,0,19.5,2.1,24.5,6.8c4.5,4.3,6.4,10.2,6.4,20.5l-0.2,14.4l-0.2,14.4c-0.2,4.6-0.2,7.8-0.2,8.9
				c0,18.2,0.7,19.2,11.2,19.3V144.7z M317.2,97.4c-24,1.8-32.4,7.9-32.4,23.3c0,11.7,5.3,19.5,13.4,19.5c6.6,0,12.9-4.1,16-10.9
				c2.1-4.3,3-9.8,3-19.2V97.4z"/>
			<path class="st6" d="M393.3,73.1c7.1-11.6,16.2-16.7,29.4-16.7c10.7,0,18.2,3.6,22.5,11.2c3,5,4.1,10.4,4.1,20.3v36.7
				c0,14.7,1.2,16.4,12.6,16.5v4h-45v-4c11.1-0.2,12.4-2,12.4-16.5V89c0-17.9-4.3-25.3-14.5-25.3c-6.9,0-12.9,3.8-17,10.9
				c-2.6,4.8-4.5,11.6-4.5,17v33.1c0,14.9,1.2,16.4,12.4,16.5v4h-45.1v-4c11.4-0.2,12.6-1.8,12.6-16.5V78.9c0-14.1-1.3-15.9-12.2-16
				v-4l32.2-2.1L393.3,73.1z"/>
			<path class="st6" d="M559.2,144.7c-9.8,1.2-18.5,2-22.8,2c-5.3,0-6.9-2.5-7.8-12.6c-8.6,9.3-17.5,13.4-28.3,13.4
				c-15.7,0-25.5-9.4-25.5-24.3c0-14.2,8.8-23,26.4-26.4c8.1-1.5,16.9-2.6,27.1-3.1V82.9c0-17.5-3-22.6-12.9-22.6
				c-5.3,0-8.8,1.7-11.1,5.6c-1.7,2.8-2.1,5.5-2.6,11.7c-0.3,6-3.1,8.1-10.1,8.1c-7.6,0-11.6-2.6-11.6-7.6c0-5.8,3.8-11.4,10.2-15.4
				c6.9-4.3,15.9-6.3,27.1-6.3c11.4,0,19.5,2.1,24.5,6.8c4.5,4.3,6.4,10.2,6.4,20.5l-0.2,14.4l-0.2,14.4c-0.2,4.6-0.2,7.8-0.2,8.9
				c0,18.2,0.7,19.2,11.2,19.3V144.7z M528.5,97.4c-24,1.8-32.4,7.9-32.4,23.3c0,11.7,5.3,19.5,13.4,19.5c6.6,0,12.9-4.1,16-10.9
				c2.1-4.3,3-9.8,3-19.2V97.4z"/>
			<path class="st6" d="M576.9,116.1h6c1,8.6,2.3,13.1,5,17.4c4.6,7.1,10.4,10.4,18.5,10.4c10.1,0,16.2-5.3,16.2-14.4
				c0-8.1-4.3-11.7-23.5-20.7c-9.8-4.3-13.9-6.9-17.9-11.2c-4-4.1-5.8-8.9-5.8-14.9c0-16,11.9-26.3,30.6-26.3
				c2.6,0,6.9,0.5,11.7,1.3c4.6,0.8,5.5,1,7.3,1c2.3,0,4.1-0.3,7.9-1.7L631.5,86h-6.1c-1.2-16.9-8.1-25.8-20-25.8
				c-8.9,0-14.7,5.5-14.7,13.7c0,4.3,1.5,7.3,5.1,10.1c3.6,2.8,3.6,2.8,18.5,9.6c16.9,7.8,22.3,14.2,22.3,26.6
				c0,17.2-11.1,27.6-29.8,27.6c-4.8,0-7.1-0.3-16.9-2c-2-0.3-4-0.5-6-0.5c-2.5,0-3,0-8.4,1L576.9,116.1z"/>
			<path class="st6" d="M677.4,98.6c0.2,12.2,1.3,19.3,4.3,26.3c4.8,10.9,12.4,16.4,22.5,16.4c11.4,0,21.2-6.8,27.3-18.8l4.1,2.6
				c-8.3,15.7-19.3,22.6-36.4,22.6c-26.3,0-43.1-17.7-43.1-45.3c0-27.8,16.4-46,41.5-46c16.9,0,28.8,7.6,34.2,21.8
				c1.8,5,2.6,9.9,3,20.3H677.4z M714.1,93.8c-0.3-10.4-1-15.5-2.8-20.7c-3.1-8.8-7.8-12.9-14.2-12.9c-7.1,0-12.6,5-16,14.5
				c-1.8,5.1-2.8,10.4-3.5,19H714.1z"/>
		</g>
	</g>
	<path class="st4" d="M807,77"/>
</g>
<polygon class="st6" points="779.9,26.3 834.3,26.3 834.3,80.1 779.9,80.6 "/>
<polygon class="st7" points="28.8,26.3 83.3,26.3 83.3,80.1 28.8,80.6 "/>
</svg>
