<?xml version="1.0" encoding="utf-8"?>
<!-- Generator: Adobe Illustrator 25.2.0, SVG Export Plug-In . SVG Version: 6.00 Build 0)  -->
<svg version="1.1" id="レイヤー_1" focusable="false"
	 xmlns="http://www.w3.org/2000/svg" xmlns:xlink="http://www.w3.org/1999/xlink" x="0px" y="0px" viewBox="0 0 246.2 200"
	 style="enable-background:new 0 0 246.2 200;" xml:space="preserve">
<style type="text/css">
	.st0{fill:#FFFFFF;}
</style>
<path class="st0" d="M220.9,49.8c0.2,2.2,0.2,4.4,0.2,6.6c0,66.7-50.8,143.6-143.6,143.6c-28.6,0-55.2-8.3-77.5-22.7
	c4.1,0.5,8,0.6,12.2,0.6c23.6,0,45.3-8,62.7-21.6c-22.2-0.5-40.8-15-47.2-35c3.1,0.5,6.3,0.8,9.5,0.8c4.5,0,9.1-0.6,13.3-1.7
	C27.3,115.8,10,95.5,10,70.9v-0.6c6.7,3.8,14.5,6.1,22.8,6.4c-13.6-9.1-22.5-24.5-22.5-42c0-9.4,2.5-18,6.9-25.5
	C42,39.8,79.4,59.8,121.2,62c-0.8-3.8-1.3-7.7-1.3-11.6C120,22.7,142.5,0,170.5,0c14.5,0,27.7,6.1,36.9,15.9
	c11.4-2.2,22.3-6.4,32-12.2c-3.8,11.7-11.7,21.6-22.2,27.8c10.2-1.1,20-3.9,29.1-7.8C239.4,33.7,230.8,42.7,220.9,49.8L220.9,49.8z"
	/>
</svg>
