<?xml version="1.0" encoding="utf-8"?>
<!-- Generator: Adobe Illustrator 25.2.0, SVG Export Plug-In . SVG Version: 6.00 Build 0)  -->
<svg version="1.1" id="レイヤー_1" focusable="false"
	 xmlns="http://www.w3.org/2000/svg" xmlns:xlink="http://www.w3.org/1999/xlink" x="0px" y="0px" viewBox="0 0 284.4 200"
	 style="enable-background:new 0 0 284.4 200;" xml:space="preserve">
<style type="text/css">
	.st0{fill:#FFFFFF;}
</style>
<path class="st0" d="M278.5,31.3C275.2,19,265.6,9.3,253.4,6c-22.2-6-111.1-6-111.1-6S53.3,0,31.1,6C18.9,9.3,9.2,19,5.9,31.3
	C0,53.6,0,100.2,0,100.2s0,46.6,5.9,68.9c3.3,12.3,12.9,21.6,25.1,24.9c22.2,6,111.1,6,111.1,6s88.9,0,111.1-6
	c12.2-3.3,21.9-12.6,25.1-24.9c5.9-22.3,5.9-68.9,5.9-68.9S284.4,53.6,278.5,31.3z M113.1,142.5V57.9l74.3,42.3L113.1,142.5
	L113.1,142.5z"/>
</svg>
